<?xml version="1.0" encoding="utf-8"?>
<!-- Generator: Adobe Illustrator 27.7.0, SVG Export Plug-In . SVG Version: 6.00 Build 0)  -->
<svg version="1.1" id="Layer_1" xmlns="http://www.w3.org/2000/svg" xmlns:xlink="http://www.w3.org/1999/xlink" x="0px" y="0px"
	 viewBox="0 0 992.1 356.2" style="enable-background:new 0 0 992.1 356.2;" xml:space="preserve">
<style type="text/css">
	.st0{fill:url(#SVGID_1_);}
</style>
<linearGradient id="SVGID_1_" gradientUnits="userSpaceOnUse" x1="0" y1="180.24" x2="209.84" y2="180.24" gradientTransform="matrix(1 0 0 -1 0 358.32)">
	<stop  offset="0.1" style="stop-color:#6C52C3"/>
	<stop  offset="0.9" style="stop-color:#4356D3"/>
</linearGradient>
<path class="st0" d="M62.5,89.6c0-1.8,1.5-3.3,3.3-3.3c1.8,0,3.3,1.5,3.3,3.3c0,1.8-1.5,3.3-3.3,3.3S62.5,91.4,62.5,89.6z
	 M104.9,86.3c3.6,0,6.6-3,6.6-6.6c0-3.6-2.9-6.6-6.6-6.6s-6.6,3-6.6,6.6S101.3,86.3,104.9,86.3z M52.6,139c7.3,0,13.2-5.9,13.2-13.2
	c0-7.3-5.9-13.2-13.2-13.2s-13.2,5.9-13.2,13.2C39.5,133.1,45.4,139,52.6,139z M6.6,171.5c-3.6,0-6.6,2.9-6.6,6.6s3,6.6,6.6,6.6
	s6.6-2.9,6.6-6.6S10.2,171.5,6.6,171.5z M144,92.9c1.8,0,3.3-1.5,3.3-3.3c0-1.8-1.5-3.3-3.3-3.3s-3.3,1.5-3.3,3.3
	C140.8,91.4,142.2,92.9,144,92.9z M16.5,213.9c-1.8,0-3.3,1.5-3.3,3.3s1.5,3.3,3.3,3.3s3.3-1.5,3.3-3.3S18.3,213.9,16.5,213.9z
	 M193.4,142.2c1.8,0,3.3-1.5,3.3-3.3c0-1.8-1.5-3.3-3.3-3.3s-3.3,1.5-3.3,3.3C190.1,140.8,191.6,142.2,193.4,142.2z M157.2,139
	c7.3,0,13.2-5.9,13.2-13.2s-5.9-13.2-13.2-13.2s-13.2,5.9-13.2,13.2S149.9,139,157.2,139z M193.4,213.9c-1.8,0-3.3,1.5-3.3,3.3
	s1.5,3.3,3.3,3.3s3.3-1.5,3.3-3.3S195.2,213.9,193.4,213.9z M144,263.3c-1.8,0-3.3,1.5-3.3,3.3c0,1.8,1.5,3.3,3.3,3.3
	s3.3-1.5,3.3-3.3C147.3,264.7,145.9,263.3,144,263.3z M183.5,165.3v25.6c-36.3,0-65.8,29.5-65.8,65.8H92.1
	c0-36.3-29.5-65.8-65.8-65.8v-25.6c36.3,0,65.8-29.5,65.8-65.8h25.6C117.7,135.8,147.2,165.3,183.5,165.3z M135.5,178.1
	c-12.4-7.6-23-18.1-30.6-30.6c-7.6,12.4-18.1,23-30.6,30.6c12.4,7.6,23,18.1,30.6,30.6C112.6,196.2,123.1,185.7,135.5,178.1z
	 M157.2,217.2c-7.3,0-13.2,5.9-13.2,13.2s5.9,13.2,13.2,13.2s13.2-5.9,13.2-13.2S164.5,217.2,157.2,217.2z M203.3,171.5
	c-3.6,0-6.6,2.9-6.6,6.6s2.9,6.6,6.6,6.6s6.6-2.9,6.6-6.6S206.9,171.5,203.3,171.5z M65.8,263.3c-1.8,0-3.3,1.5-3.3,3.3
	c0,1.8,1.5,3.3,3.3,3.3s3.3-1.5,3.3-3.3C69.1,264.7,67.6,263.3,65.8,263.3z M52.6,217.2c-7.3,0-13.2,5.9-13.2,13.2
	s5.9,13.2,13.2,13.2s13.2-5.9,13.2-13.2S59.9,217.2,52.6,217.2z M16.5,135.7c-1.8,0-3.3,1.5-3.3,3.3c0,1.8,1.5,3.3,3.3,3.3
	s3.3-1.5,3.3-3.3C19.7,137.1,18.3,135.7,16.5,135.7z M104.9,269.8c-3.6,0-6.6,2.9-6.6,6.6s2.9,6.6,6.6,6.6c3.6,0,6.6-3,6.6-6.6
	S108.6,269.8,104.9,269.8z"/>
<path d="M321.1,127.4c0.4,1.2,0.5,2.4,0.2,3.6c-0.3,1.2-0.9,2.1-1.8,2.9c-0.9,0.8-2.1,1.1-3.5,1.2c-1.4,0.1-3-0.4-4.7-1.5
	c-4.5-3.3-9.6-5.7-15.2-7.1c-5.6-1.4-11.3-2.2-17.1-2.2s-11,0.9-15.8,2.6c-4.7,1.8-8.4,4.2-11.1,7.3c-2.7,3.1-4,6.9-4,11.3
	c0,5.3,1.5,9.3,4.4,11.9s7.3,4.6,13.1,6l18,3.8c10.9,2.3,18.9,5.9,24,10.6s7.7,10.5,7.7,17.2c0,5.3-1.2,10.1-3.6,14.2
	c-2.4,4.2-5.8,7.6-10.1,10.4s-9.2,4.9-14.8,6.3c-5.6,1.4-11.6,2.2-18.1,2.2c-5.2,0-10.3-0.4-15.4-1.1c-5.1-0.7-9.9-1.9-14.6-3.5
	s-8.8-3.7-12.7-6.4c-1.5-0.9-2.5-1.9-2.9-3c-0.4-1.2-0.5-2.4-0.2-3.6c0.3-1.2,0.9-2.3,1.7-3.1c0.9-0.9,2-1.3,3.4-1.4
	s2.9,0.3,4.5,1.3c5.6,3.5,11.4,5.9,17.6,7.3c6.2,1.3,12.7,2,19.7,2c9.4,0,16.9-1.8,22.5-5.4c5.7-3.6,8.5-8.4,8.5-14.6
	c0-4.3-1.7-7.9-5-11c-3.4-3-9.2-5.4-17.7-7.1l-17.9-4c-8.1-1.8-14.6-4.9-19.4-9.3c-4.9-4.4-7.3-10.7-7.3-18.9
	c0-5.1,1.2-9.8,3.6-13.9c2.4-4.2,5.6-7.7,9.8-10.6c4.2-2.9,9-5.2,14.6-6.8c5.5-1.6,11.4-2.4,17.7-2.4c6.7,0,13.6,0.9,20.6,2.7
	c7,1.8,13.2,4.8,18.5,9C319.9,125.2,320.7,126.2,321.1,127.4L321.1,127.4z M408.2,163.2c2.5,5,3.8,10.9,3.8,17.7
	c0,8.5-1.5,16.4-4.6,23.6c-3.1,7.2-7.6,12.9-13.5,17.3c-5.9,4.3-13.1,6.5-21.6,6.5c-6.3,0-11.9-1.6-16.9-4.7
	c-4.3-2.7-7.4-6.6-9.4-11.7l-6.4,38.7c-0.2,2.1-1,3.7-2.2,4.7c-1.2,1-3,1.5-5.3,1.5c-2.1,0-3.6-0.7-4.6-2s-1.2-3.2-0.8-5.5
	l15.3-94.6c0.3-2.2,1.1-3.9,2.4-5c1.2-1.1,3-1.6,5.1-1.6c2.1,0,3.6,0.6,4.5,1.9s1.2,3.1,0.7,5.6l-1.1,6.6c2.7-4,6-7.2,10-9.7
	c5.1-3.1,11-4.7,17.8-4.7c6.2,0,11.6,1.3,16.2,4C402.1,154.3,405.7,158.2,408.2,163.2L408.2,163.2z M398.6,181.4
	c0-7.7-1.9-13.5-5.7-17.4c-3.8-3.9-9-5.9-15.6-5.9c-6,0-11,1.7-15.2,5c-4.2,3.3-7.4,7.7-9.5,13.1c-2.2,5.4-3.3,11.6-3.3,18.4
	c0,7.6,1.9,13.4,5.7,17.4c3.8,4,9,6,15.6,6c6.1,0,11.2-1.6,15.3-5c4.1-3.3,7.3-7.7,9.5-13.3C397.5,194.1,398.6,188,398.6,181.4
	L398.6,181.4z M504.6,163.2c1.7,4.9,2,10.7,0.9,17.3l-7.1,41.1c-0.2,2.1-1,3.7-2.3,4.8c-1.3,1.1-3.1,1.6-5.3,1.6s-3.6-0.6-4.6-1.9
	s-1.3-3.1-1-5.4l1-5.9c-1.2,1.9-2.6,3.7-4.2,5.2c-3.1,2.8-6.6,4.9-10.5,6.3c-3.9,1.4-7.9,2.1-12,2.1c-4.9,0-9.4-1-13.6-3
	c-4.2-2-7.6-4.8-10.1-8.3c-2.5-3.5-3.8-7.5-3.8-12c0-5.5,1.6-10,4.9-13.3c3.3-3.4,8.5-5.8,15.5-7.4c7-1.6,16.1-2.4,27.2-2.4h12
	l0.8-4.8c1.1-6.2,0.3-10.9-2.5-14.1c-2.8-3.2-8-4.8-15.3-4.8c-4.3,0-8.3,0.4-12.1,1.1c-3.8,0.8-7.6,2.1-11.4,4.2
	c-1.5,0.8-2.9,1.1-4.2,1c-1.3-0.1-2.3-0.6-3.1-1.4c-0.8-0.8-1.3-1.7-1.4-2.8c-0.1-1.1,0.2-2.1,0.9-3.2c0.7-1.1,1.9-2,3.6-2.9
	c4.4-2.2,9.2-3.9,14.3-4.9c5.1-1,10.1-1.5,15-1.5c7.9,0,14.1,1.4,18.8,4.1S502.9,158.3,504.6,163.2L504.6,163.2z M489.2,196.4l1-6.2
	h-8.7c-8.9,0-15.9,0.4-21.1,1.3c-5.1,0.9-8.8,2.3-11,4.3c-2.2,2-3.3,4.8-3.3,8.3c0,4.7,1.7,8.3,5.1,10.7c3.4,2.4,7.3,3.7,11.7,3.7
	s8.2-0.9,11.9-2.6c3.6-1.7,6.7-4.2,9.3-7.6C486.7,205,488.4,201,489.2,196.4L489.2,196.4z M577.1,147.5c-7.2,0.2-13.6,2-19.3,5.4
	c-3.9,2.3-7,5.3-9.3,9l1.1-6.6c0.3-2.3,0-4.2-1-5.4c-1-1.3-2.6-1.9-4.7-1.9c-2.2,0-4,0.5-5.3,1.5c-1.3,1-2.2,2.6-2.7,4.7l-11.3,66.2
	c-0.3,2.4,0,4.3,1,5.6c1,1.3,2.6,1.9,4.8,1.9c2.4,0,4.3-0.5,5.7-1.6c1.4-1.1,2.2-2.6,2.4-4.6l6.6-37.7c1.3-7.1,3.9-12.9,8-17.3
	c4-4.4,10.7-6.9,19.9-7.7l3.5-0.2c2.5-0.3,4.4-1,5.5-2c1.2-1,1.7-2.6,1.7-4.9c0-1.7-0.5-2.9-1.4-3.6
	C581.4,147.7,579.6,147.4,577.1,147.5L577.1,147.5z M657.2,148c-1.5,0-2.9,0.3-4,0.9s-2.4,1.5-3.8,2.6l-39.7,32.1h-0.3l10.2-63
	c0.4-2.4,0.2-4.3-0.8-5.7c-1-1.3-2.5-2-4.6-2c-2.2,0-4,0.5-5.2,1.5c-1.3,1-2.1,2.6-2.4,4.7l-16.5,101.2c-0.4,2.4-0.2,4.2,0.8,5.5
	c1,1.3,2.5,2,4.6,2c4.5,0,7.1-2.1,7.6-6.2l5.3-31.6h0.3l32.1,32.9c1.5,1.7,2.9,3,4,3.8c1.2,0.8,2.6,1.2,4.4,1.2s3.1-0.5,4.1-1.5
	c1-1,1.5-2.2,1.6-3.7c0-1.4-0.6-2.9-1.9-4.2L623,187.3l36.7-30c1.4-1.3,2.3-2.6,2.5-4.1s-0.1-2.7-1-3.7
	C660.3,148.5,659,148,657.2,148L657.2,148z M804.8,113c-1.7,0-3,0.3-4.1,1c-1.1,0.6-2.2,1.6-3.3,3l-55.9,78.7l-29.4-77.6
	c-0.8-1.8-1.6-3.1-2.6-3.9c-0.9-0.8-2.3-1.2-4-1.2c-1.9,0-3.4,0.5-4.5,1.4c-1.1,1-1.9,2.5-2.3,4.5l-16.7,101.5
	c-0.2,2.1,0.1,3.8,1.1,5c0.9,1.2,2.5,1.8,4.5,1.8c2,0,3.5-0.5,4.6-1.4s1.8-2.4,2-4.3L708,138l26.3,68.2c0.7,1.5,1.4,2.6,2.3,3.3
	s2.1,1,3.6,1c1.3,0,2.4-0.2,3.3-0.7s1.7-1.3,2.5-2.5l48.8-68.6l-13.3,81.7c-0.3,2.1,0,3.8,1.1,5c1,1.2,2.6,1.8,4.5,1.8
	s3.5-0.5,4.6-1.4s1.8-2.4,2-4.3l16.7-101.5c0.3-2.1,0-3.8-0.9-5C808.4,113.6,806.9,113,804.8,113L804.8,113z M899.2,171.9
	c0.8,4.6,0.8,9.4,0.3,14.3c-0.2,1.8-0.7,3-1.5,3.6s-1.9,0.9-3.5,0.9h-54.5c-0.7,7.7,0.8,14,4.6,18.9c4.3,5.5,10.9,8.3,19.7,8.3
	c3.8,0,7.6-0.5,11.2-1.4c3.6-1,7.1-2.5,10.3-4.6c1.5-1,2.8-1.4,3.9-1.4s2,0.4,2.7,1.1c0.7,0.7,1.1,1.6,1.3,2.6c0.2,1,0,2.1-0.5,3.2
	s-1.4,2.2-2.7,3.1c-3.6,2.6-7.9,4.5-12.8,5.8c-4.9,1.3-9.6,2-14.1,2c-7.4,0-13.8-1.4-19.2-4.2c-5.5-2.8-9.7-6.7-12.6-11.9
	s-4.4-11.3-4.4-18.3c0-8.4,1.7-16.1,5.1-23.1c3.4-7,8.2-12.6,14.4-16.8c6.2-4.2,13.6-6.3,22.1-6.3c6.1,0,11.2,1.1,15.3,3.2
	c4.1,2.1,7.4,5,9.9,8.6S898.5,167.2,899.2,171.9L899.2,171.9z M841.5,182.2h47.4c0.4-4.2,0.2-8-0.7-11.5c-1.1-4.1-3.2-7.3-6.3-9.8
	c-3.1-2.5-7.4-3.7-12.8-3.7c-5.8,0-10.6,1.3-14.4,3.9s-6.9,5.9-9.1,10C843.6,174.7,842.3,178.4,841.5,182.2L841.5,182.2z
	 M991.8,186.2c-0.2,1.8-0.7,3-1.5,3.6s-1.9,0.9-3.5,0.9h-54.5c-0.7,7.7,0.8,14,4.6,18.9c4.3,5.5,10.9,8.3,19.7,8.3
	c3.8,0,7.6-0.5,11.2-1.4c3.6-1,7.1-2.5,10.3-4.6c1.5-1,2.8-1.4,3.9-1.4s2,0.4,2.7,1.1c0.7,0.7,1.1,1.6,1.3,2.6c0.2,1,0,2.1-0.5,3.2
	s-1.4,2.2-2.7,3.1c-3.6,2.6-7.9,4.5-12.8,5.8c-4.9,1.3-9.6,2-14.1,2c-7.4,0-13.8-1.4-19.2-4.2c-5.5-2.8-9.7-6.7-12.6-11.9
	s-4.4-11.3-4.4-18.3c0-8.4,1.7-16.1,5.1-23.1c3.4-7,8.2-12.6,14.4-16.8c6.2-4.2,13.6-6.3,22.1-6.3c6.1,0,11.2,1.1,15.3,3.2
	c4.1,2.1,7.4,5,9.9,8.6s4.1,7.8,4.8,12.4C992.2,176.5,992.3,181.3,991.8,186.2L991.8,186.2z M933.7,182.2h47.4
	c0.4-4.2,0.2-8-0.7-11.5c-1.1-4.1-3.2-7.3-6.3-9.8c-3.1-2.5-7.4-3.7-12.8-3.7c-5.8,0-10.6,1.3-14.4,3.9s-6.9,5.9-9.1,10
	C935.9,174.7,934.5,178.4,933.7,182.2L933.7,182.2z"/>
</svg>
